Simulation
nRows=16
nColumns=15
endheader
time  TH_x TH_y TH_z SC_y  SC_z  SC_x  AC_y  AC_z  AC_x  GH_y  GH_z  GH_yy  EL_x  PS_y
1.95  0.000000  0.000000  0.000000  -29.66202492069275  9.9497283074749  22.03862283716268  56.38677807195884  10.266030626709103  1.7598880440951692  52.90369910409012  61.42619396818324  -42.72260869806433  22.373186322833597  0.000000
1.989  0.000000  0.000000  0.000000  -29.471128950134826  9.504700233214297  21.285860692647283  56.40614699275226  10.098505585989304  1.3118670921393407  52.9591441418472  60.528105269386685  -41.813019730046456  22.57326324586907  0.000000
2.028  0.000000  0.000000  0.000000  -29.25866370621816  9.01783382970622  20.468927016719903  56.40597510920742  9.933554934119062  0.8618521208506364  53.036938966838854  59.477124940756724  -40.92383860673142  22.773406109105196  0.000000
2.067  0.000000  0.000000  0.000000  -29.02809866424483  8.50059533372123  19.603721308272  56.38601542422569  9.774652732917604  0.42535267247463937  53.13464026523072  58.27168134379012  -40.0713516068777  22.962066929490177  0.000000
2.106  0.000000  0.000000  0.000000  -28.77206117253787  7.959934803181757  18.698063020535255  56.34846799972706  9.620460478883928  0.010776440731367845  53.21940950844607  56.9273733892625  -39.21078711047286  23.124773652618718  0.000000
2.145  0.000000  0.000000  0.000000  -28.478550453504923  7.396355411722578  17.75243213289185  56.297080990438076  9.469482017633414  -0.37837659880856006  53.24334905574061  55.472293014750576  -38.26731584267437  23.24654734214606  0.000000
2.184  0.000000  0.000000  0.000000  -28.144196394423705  6.810966964804906  16.76497827560826  56.23361772607864  9.32219991311394  -0.7369622733761756  53.17007507183044  53.935351988899754  -37.18472567059951  23.321929306061385  0.000000
2.223  0.000000  0.000000  0.000000  -27.784116013819414  6.207679403676122  15.74074600663476  56.16067837218969  9.179677299430407  -1.0588780643387061  52.986392639027414  52.337648735404215  -35.953639091268094  23.35983353158808  0.000000
2.262  0.000000  0.000000  0.000000  -27.427139426444885  5.588617416666604  14.692115462178377  56.08104679609694  9.042081613092785  -1.3409101288401377  52.696350181175745  50.68956843884437  -34.60401796677273  23.378387156912414  0.000000
2.301  0.000000  0.000000  0.000000  -27.105594118027334  4.959867818645045  13.63461487167113  55.99646353596853  8.906482143786311  -1.5807966815804748  52.30845188143876  48.993908662682614  -33.170400801241854  23.401148919484882  0.000000
2.34  0.000000  0.000000  0.000000  -26.8330022177342  4.32991012532632  12.581521955010244  55.90142698795052  8.771256172520062  -1.7796561143323157  51.82158961672114  47.24906429136849  -31.65494563554364  23.452370565884127  0.000000
2.379  0.000000  0.000000  0.000000  -26.60101450927136  3.7069868908192825  11.541813273226472  55.78598542357362  8.633138046638964  -1.9454190593241263  51.21534718463484  45.45713472958164  -30.021152648560786  23.551009066202262  0.000000
2.418  0.000000  0.000000  0.000000  -26.39237199846557  3.099620857440721  10.518600968998387  55.63500111844762  8.486570347416325  -2.087039550328724  50.45629144851832  43.62519165242954  -28.206532526208186  23.710438296191864  0.000000
2.457  0.000000  0.000000  0.000000  -26.192823424567315  2.5155691687674695  9.51473622017857  55.43579604104581  8.330493129198723  -2.2124815344291884  49.50532136466954  41.76079334624994  -26.14017541201925  23.944513916580636  0.000000
2.496  0.000000  0.000000  0.000000  -26.00687139618477  1.9591663018977306  8.536660992593802  55.18633424152153  8.161933284817025  -2.32625681970601  48.33240821775697  39.8765526629487  -23.78724980175215  24.262507572146166  0.000000
2.535  0.000000  0.000000  0.000000  -25.85551391415899  1.4323696517005629  7.591883699562556  54.89186574382629  7.975950323544833  -2.428935329684436  46.919272914733476  37.991017337007015  -21.14208692630111  24.668255772851897  0.000000
